<?xml version="1.0" standalone="no"?>
<svg xmlns:xlink="http://www.w3.org/1999/xlink" id="wave" style="transform:rotate(0deg); transition: 0.3s" viewBox="0 0 1440 100" version="1.1" xmlns="http://www.w3.org/2000/svg"><defs><linearGradient id="sw-gradient-0" x1="0" x2="0" y1="1" y2="0"><stop stop-color="rgba(255, 255, 255, 1)" offset="0%"/><stop stop-color="rgba(255, 255, 255, 1)" offset="100%"/></linearGradient></defs><path style="transform:translate(0, 0px); opacity:1" fill="url(#sw-gradient-0)" d="M0,50L24,43.3C48,37,96,23,144,23.3C192,23,240,37,288,50C336,63,384,77,432,75C480,73,528,57,576,48.3C624,40,672,40,720,36.7C768,33,816,27,864,30C912,33,960,47,1008,45C1056,43,1104,27,1152,23.3C1200,20,1248,30,1296,38.3C1344,47,1392,53,1440,51.7C1488,50,1536,40,1584,31.7C1632,23,1680,17,1728,16.7C1776,17,1824,23,1872,23.3C1920,23,1968,17,2016,16.7C2064,17,2112,23,2160,33.3C2208,43,2256,57,2304,60C2352,63,2400,57,2448,50C2496,43,2544,37,2592,33.3C2640,30,2688,30,2736,25C2784,20,2832,10,2880,15C2928,20,2976,40,3024,43.3C3072,47,3120,33,3168,38.3C3216,43,3264,67,3312,75C3360,83,3408,77,3432,73.3L3456,70L3456,100L3432,100C3408,100,3360,100,3312,100C3264,100,3216,100,3168,100C3120,100,3072,100,3024,100C2976,100,2928,100,2880,100C2832,100,2784,100,2736,100C2688,100,2640,100,2592,100C2544,100,2496,100,2448,100C2400,100,2352,100,2304,100C2256,100,2208,100,2160,100C2112,100,2064,100,2016,100C1968,100,1920,100,1872,100C1824,100,1776,100,1728,100C1680,100,1632,100,1584,100C1536,100,1488,100,1440,100C1392,100,1344,100,1296,100C1248,100,1200,100,1152,100C1104,100,1056,100,1008,100C960,100,912,100,864,100C816,100,768,100,720,100C672,100,624,100,576,100C528,100,480,100,432,100C384,100,336,100,288,100C240,100,192,100,144,100C96,100,48,100,24,100L0,100Z"/></svg>