<?xml version="1.0" standalone="no"?>
<svg xmlns:xlink="http://www.w3.org/1999/xlink" id="wave" style="transform:rotate(180deg); transition: 0.3s" viewBox="0 0 1440 260" version="1.1" xmlns="http://www.w3.org/2000/svg"><defs><linearGradient id="sw-gradient-0" x1="0" x2="0" y1="1" y2="0"><stop stop-color="rgba(255, 255, 255, 1)" offset="0%"/><stop stop-color="rgba(255, 255, 255, 1)" offset="100%"/></linearGradient></defs><path style="transform:translate(0, 0px); opacity:1" fill="url(#sw-gradient-0)" d="M0,0L24,4.3C48,9,96,17,144,56.3C192,95,240,165,288,177.7C336,191,384,147,432,125.7C480,104,528,104,576,112.7C624,121,672,139,720,151.7C768,165,816,173,864,169C912,165,960,147,1008,151.7C1056,156,1104,182,1152,182C1200,182,1248,156,1296,156C1344,156,1392,182,1440,190.7C1488,199,1536,191,1584,160.3C1632,130,1680,78,1728,78C1776,78,1824,130,1872,147.3C1920,165,1968,147,2016,156C2064,165,2112,199,2160,186.3C2208,173,2256,113,2304,99.7C2352,87,2400,121,2448,138.7C2496,156,2544,156,2592,156C2640,156,2688,156,2736,130C2784,104,2832,52,2880,47.7C2928,43,2976,87,3024,91C3072,95,3120,61,3168,43.3C3216,26,3264,26,3312,52C3360,78,3408,130,3432,156L3456,182L3456,260L3432,260C3408,260,3360,260,3312,260C3264,260,3216,260,3168,260C3120,260,3072,260,3024,260C2976,260,2928,260,2880,260C2832,260,2784,260,2736,260C2688,260,2640,260,2592,260C2544,260,2496,260,2448,260C2400,260,2352,260,2304,260C2256,260,2208,260,2160,260C2112,260,2064,260,2016,260C1968,260,1920,260,1872,260C1824,260,1776,260,1728,260C1680,260,1632,260,1584,260C1536,260,1488,260,1440,260C1392,260,1344,260,1296,260C1248,260,1200,260,1152,260C1104,260,1056,260,1008,260C960,260,912,260,864,260C816,260,768,260,720,260C672,260,624,260,576,260C528,260,480,260,432,260C384,260,336,260,288,260C240,260,192,260,144,260C96,260,48,260,24,260L0,260Z"/></svg>